<svg xmlns="http://www.w3.org/2000/svg" width="860" height="910" viewBox="0 0 860 910" role="img" aria-labelledby="title desc">
  <title id="title">E Madan Kumar cyberdeck GitHub dashboard</title>
  <desc id="desc">Neon cyberpunk profile dashboard for robotics and AI engineering.</desc>
  <defs>
    <linearGradient id="heroLine" x1="0" x2="1" y1="0" y2="0">
      <stop offset="0" stop-color="#ff00b4" stop-opacity="0"/>
      <stop offset="0.25" stop-color="#ff00b4"/>
      <stop offset="0.5" stop-color="#00f0ff"/>
      <stop offset="0.75" stop-color="#ff00b4"/>
      <stop offset="1" stop-color="#ff00b4" stop-opacity="0"/>
    </linearGradient>
    <linearGradient id="nameGrad" x1="0" x2="1" y1="0" y2="0">
      <stop offset="0" stop-color="#ff00b4"/>
      <stop offset="0.5" stop-color="#00f0ff"/>
      <stop offset="1" stop-color="#bf00ff"/>
    </linearGradient>
    <linearGradient id="pinkPurple" x1="0" x2="1">
      <stop offset="0" stop-color="#bf00ff"/>
      <stop offset="1" stop-color="#ff00b4"/>
    </linearGradient>
    <linearGradient id="blueCyan" x1="0" x2="1">
      <stop offset="0" stop-color="#0040ff"/>
      <stop offset="1" stop-color="#00f0ff"/>
    </linearGradient>
    <linearGradient id="cyanGreen" x1="0" x2="1">
      <stop offset="0" stop-color="#00f0ff"/>
      <stop offset="1" stop-color="#00ff90"/>
    </linearGradient>
    <filter id="glowPink" x="-50%" y="-50%" width="200%" height="200%">
      <feGaussianBlur stdDeviation="4" result="blur"/>
      <feMerge>
        <feMergeNode in="blur"/>
        <feMergeNode in="SourceGraphic"/>
      </feMerge>
    </filter>
    <filter id="softBlur" x="-50%" y="-50%" width="200%" height="200%">
      <feGaussianBlur stdDeviation="40"/>
    </filter>
    <pattern id="grid" width="40" height="40" patternUnits="userSpaceOnUse">
      <path d="M 40 0 L 0 0 0 40" fill="none" stroke="#00f0ff" stroke-opacity="0.04" stroke-width="1"/>
    </pattern>
    <pattern id="scan" width="4" height="4" patternUnits="userSpaceOnUse">
      <path d="M0 2H4V4H0Z" fill="#000" opacity="0.08"/>
    </pattern>
    <style>
      .mono{font-family:'JetBrains Mono','Cascadia Mono','Consolas',monospace}
      .orbit{font-family:'Orbitron','Segoe UI',sans-serif}
      .small{font-size:11px}
      .body{font-size:12px}
      .muted{fill:#555580}
      .soft{fill:#9090b0}
      .text{fill:#c0c0e0}
      .pink{fill:#ff00b4}
      .cyan{fill:#00f0ff}
      .purple{fill:#bf00ff}
      .green{fill:#00ff90}
      .gold{fill:#ffd700}
      .label{text-transform:uppercase;letter-spacing:.06em}
    </style>
  </defs>

  <rect width="860" height="910" fill="#060010"/>
  <rect width="860" height="910" fill="url(#grid)"/>
  <circle cx="-20" cy="20" r="170" fill="#ff00b4" opacity="0.18" filter="url(#softBlur)"/>
  <circle cx="850" cy="110" r="150" fill="#00c8ff" opacity="0.15" filter="url(#softBlur)"/>
  <circle cx="330" cy="780" r="120" fill="#bf00ff" opacity="0.12" filter="url(#softBlur)"/>

  <g class="mono" transform="translate(0 20)">
    <rect x="0" y="0" width="860" height="168" rx="12" fill="#ff00b4" fill-opacity="0.04" stroke="#ff00b4" stroke-opacity="0.27"/>
    <rect x="0" y="0" width="860" height="2" fill="url(#heroLine)"/>
    <rect x="0" y="0" width="860" height="36" rx="12" fill="#000" fill-opacity="0.5"/>
    <path d="M0 36H860" stroke="#ff00b4" stroke-opacity="0.13"/>
    <circle cx="20" cy="18" r="5.5" fill="#ff3b5c" filter="url(#glowPink)"/>
    <circle cx="39" cy="18" r="5.5" fill="#ffd700"/>
    <circle cx="58" cy="18" r="5.5" fill="#00ff90"/>
    <text x="75" y="22" class="small muted">~/madankumar477 - cyberdeck v2.0</text>

    <text x="26" y="64" class="small"><tspan class="pink">&#9654;</tspan><tspan class="cyan"> init profile --user=madankumar477</tspan></text>
    <text x="26" y="102" class="orbit" font-size="26" font-weight="900" letter-spacing="2" fill="url(#nameGrad)" filter="url(#glowPink)">E MADAN KUMAR</text>
    <text x="26" y="127" class="body muted">@madankumar477 <tspan class="cyan">// github.com/madankumar477</tspan></text>
    <text x="26" y="153" class="body soft"><tspan class="pink" font-weight="700">Robotics &amp; AI Engineer</tspan> &#8226; B.E. DSCE Bengaluru</text>
    <text x="360" y="153" class="body soft"><tspan class="cyan">Intern</tspan> @ <tspan class="purple">ATI Motors</tspan> - New Product Initiative (NPI)</text>

    <g transform="translate(26 183)">
      <rect x="0" y="0" width="108" height="24" rx="12" fill="#ff00b4" fill-opacity="0.10" stroke="#ff00b4" stroke-opacity="0.33"/>
      <text x="14" y="16" class="small pink">&#9889; ROS2 Humble</text>
      <rect x="118" y="0" width="88" height="24" rx="12" fill="#00f0ff" fill-opacity="0.10" stroke="#00f0ff" stroke-opacity="0.33"/>
      <text x="132" y="16" class="small cyan">Python</text>
      <rect x="216" y="0" width="86" height="24" rx="12" fill="#bf00ff" fill-opacity="0.10" stroke="#bf00ff" stroke-opacity="0.33"/>
      <text x="230" y="16" class="small purple">OpenCV</text>
      <rect x="312" y="0" width="94" height="24" rx="12" fill="#ff00b4" fill-opacity="0.10" stroke="#ff00b4" stroke-opacity="0.33"/>
      <text x="326" y="16" class="small pink">Dobot API</text>
      <rect x="416" y="0" width="86" height="24" rx="12" fill="#00f0ff" fill-opacity="0.10" stroke="#00f0ff" stroke-opacity="0.33"/>
      <text x="430" y="16" class="small cyan">Arduino</text>
      <rect x="512" y="0" width="92" height="24" rx="12" fill="#bf00ff" fill-opacity="0.10" stroke="#bf00ff" stroke-opacity="0.33"/>
      <text x="526" y="16" class="small purple">Embedded</text>
    </g>
  </g>

  <g class="mono" transform="translate(0 245)">
    <rect x="0" y="0" width="860" height="146" rx="12" fill="#060010" stroke="#00f0ff" stroke-opacity="0.20"/>
    <rect x="0" y="0" width="860" height="34" rx="12" fill="#000" fill-opacity="0.6"/>
    <path d="M0 34H860" stroke="#00f0ff" stroke-opacity="0.13"/>
    <circle cx="18" cy="17" r="3.5" fill="#ff00b4" filter="url(#glowPink)"/>
    <text x="34" y="21" class="small"><tspan class="pink">contribution_snake.exe</tspan><tspan class="muted"> - eating the grid live</tspan></text>

    <g transform="translate(14 48)">
      <g fill="#0d0a1a">
        <rect x="0" y="0" width="8" height="8" rx="2"/><rect x="14" y="0" width="8" height="8" rx="2"/><rect x="28" y="0" width="8" height="8" rx="2"/><rect x="42" y="0" width="8" height="8" rx="2"/><rect x="56" y="0" width="8" height="8" rx="2"/><rect x="70" y="0" width="8" height="8" rx="2"/><rect x="84" y="0" width="8" height="8" rx="2"/><rect x="98" y="0" width="8" height="8" rx="2"/><rect x="112" y="0" width="8" height="8" rx="2"/><rect x="126" y="0" width="8" height="8" rx="2"/><rect x="140" y="0" width="8" height="8" rx="2"/><rect x="154" y="0" width="8" height="8" rx="2"/><rect x="168" y="0" width="8" height="8" rx="2"/><rect x="182" y="0" width="8" height="8" rx="2"/><rect x="196" y="0" width="8" height="8" rx="2"/><rect x="210" y="0" width="8" height="8" rx="2"/><rect x="224" y="0" width="8" height="8" rx="2"/><rect x="238" y="0" width="8" height="8" rx="2"/><rect x="252" y="0" width="8" height="8" rx="2"/><rect x="266" y="0" width="8" height="8" rx="2"/><rect x="280" y="0" width="8" height="8" rx="2"/><rect x="294" y="0" width="8" height="8" rx="2"/><rect x="308" y="0" width="8" height="8" rx="2"/><rect x="322" y="0" width="8" height="8" rx="2"/><rect x="336" y="0" width="8" height="8" rx="2"/><rect x="350" y="0" width="8" height="8" rx="2"/><rect x="364" y="0" width="8" height="8" rx="2"/><rect x="378" y="0" width="8" height="8" rx="2"/><rect x="392" y="0" width="8" height="8" rx="2"/><rect x="406" y="0" width="8" height="8" rx="2"/><rect x="420" y="0" width="8" height="8" rx="2"/><rect x="434" y="0" width="8" height="8" rx="2"/><rect x="448" y="0" width="8" height="8" rx="2"/><rect x="462" y="0" width="8" height="8" rx="2"/><rect x="476" y="0" width="8" height="8" rx="2"/><rect x="490" y="0" width="8" height="8" rx="2"/><rect x="504" y="0" width="8" height="8" rx="2"/><rect x="518" y="0" width="8" height="8" rx="2"/><rect x="532" y="0" width="8" height="8" rx="2"/><rect x="546" y="0" width="8" height="8" rx="2"/><rect x="560" y="0" width="8" height="8" rx="2"/><rect x="574" y="0" width="8" height="8" rx="2"/><rect x="588" y="0" width="8" height="8" rx="2"/><rect x="602" y="0" width="8" height="8" rx="2"/><rect x="616" y="0" width="8" height="8" rx="2"/><rect x="630" y="0" width="8" height="8" rx="2"/><rect x="644" y="0" width="8" height="8" rx="2"/><rect x="658" y="0" width="8" height="8" rx="2"/><rect x="672" y="0" width="8" height="8" rx="2"/><rect x="686" y="0" width="8" height="8" rx="2"/><rect x="700" y="0" width="8" height="8" rx="2"/><rect x="714" y="0" width="8" height="8" rx="2"/><rect x="728" y="0" width="8" height="8" rx="2"/><rect x="742" y="0" width="8" height="8" rx="2"/><rect x="756" y="0" width="8" height="8" rx="2"/><rect x="770" y="0" width="8" height="8" rx="2"/><rect x="784" y="0" width="8" height="8" rx="2"/><rect x="798" y="0" width="8" height="8" rx="2"/><rect x="812" y="0" width="8" height="8" rx="2"/>
        <rect x="0" y="14" width="8" height="8" rx="2"/><rect x="14" y="14" width="8" height="8" rx="2"/><rect x="28" y="14" width="8" height="8" rx="2"/><rect x="42" y="14" width="8" height="8" rx="2"/><rect x="56" y="14" width="8" height="8" rx="2"/><rect x="70" y="14" width="8" height="8" rx="2"/><rect x="84" y="14" width="8" height="8" rx="2"/><rect x="98" y="14" width="8" height="8" rx="2"/><rect x="112" y="14" width="8" height="8" rx="2"/><rect x="126" y="14" width="8" height="8" rx="2"/><rect x="140" y="14" width="8" height="8" rx="2"/><rect x="154" y="14" width="8" height="8" rx="2"/><rect x="168" y="14" width="8" height="8" rx="2"/><rect x="182" y="14" width="8" height="8" rx="2"/><rect x="196" y="14" width="8" height="8" rx="2"/><rect x="210" y="14" width="8" height="8" rx="2"/><rect x="224" y="14" width="8" height="8" rx="2"/><rect x="238" y="14" width="8" height="8" rx="2"/><rect x="252" y="14" width="8" height="8" rx="2"/><rect x="266" y="14" width="8" height="8" rx="2"/><rect x="280" y="14" width="8" height="8" rx="2"/><rect x="294" y="14" width="8" height="8" rx="2"/><rect x="308" y="14" width="8" height="8" rx="2"/><rect x="322" y="14" width="8" height="8" rx="2"/><rect x="336" y="14" width="8" height="8" rx="2"/><rect x="350" y="14" width="8" height="8" rx="2"/><rect x="364" y="14" width="8" height="8" rx="2"/><rect x="378" y="14" width="8" height="8" rx="2"/><rect x="392" y="14" width="8" height="8" rx="2"/><rect x="406" y="14" width="8" height="8" rx="2"/><rect x="420" y="14" width="8" height="8" rx="2"/><rect x="434" y="14" width="8" height="8" rx="2"/><rect x="448" y="14" width="8" height="8" rx="2"/><rect x="462" y="14" width="8" height="8" rx="2"/><rect x="476" y="14" width="8" height="8" rx="2"/><rect x="490" y="14" width="8" height="8" rx="2"/><rect x="504" y="14" width="8" height="8" rx="2"/><rect x="518" y="14" width="8" height="8" rx="2"/><rect x="532" y="14" width="8" height="8" rx="2"/><rect x="546" y="14" width="8" height="8" rx="2"/><rect x="560" y="14" width="8" height="8" rx="2"/><rect x="574" y="14" width="8" height="8" rx="2"/><rect x="588" y="14" width="8" height="8" rx="2"/><rect x="602" y="14" width="8" height="8" rx="2"/><rect x="616" y="14" width="8" height="8" rx="2"/><rect x="630" y="14" width="8" height="8" rx="2"/><rect x="644" y="14" width="8" height="8" rx="2"/><rect x="658" y="14" width="8" height="8" rx="2"/><rect x="672" y="14" width="8" height="8" rx="2"/><rect x="686" y="14" width="8" height="8" rx="2"/><rect x="700" y="14" width="8" height="8" rx="2"/><rect x="714" y="14" width="8" height="8" rx="2"/><rect x="728" y="14" width="8" height="8" rx="2"/><rect x="742" y="14" width="8" height="8" rx="2"/><rect x="756" y="14" width="8" height="8" rx="2"/><rect x="770" y="14" width="8" height="8" rx="2"/><rect x="784" y="14" width="8" height="8" rx="2"/><rect x="798" y="14" width="8" height="8" rx="2"/><rect x="812" y="14" width="8" height="8" rx="2"/>
      </g>
      <g fill="#1a0040"><rect x="70" y="28" width="8" height="8" rx="2"/><rect x="112" y="42" width="8" height="8" rx="2"/><rect x="168" y="56" width="8" height="8" rx="2"/><rect x="224" y="70" width="8" height="8" rx="2"/><rect x="322" y="42" width="8" height="8" rx="2"/><rect x="420" y="56" width="8" height="8" rx="2"/><rect x="518" y="70" width="8" height="8" rx="2"/><rect x="616" y="28" width="8" height="8" rx="2"/><rect x="714" y="42" width="8" height="8" rx="2"/></g>
      <g fill="#4a0080"><rect x="84" y="42" width="8" height="8" rx="2"/><rect x="154" y="28" width="8" height="8" rx="2"/><rect x="252" y="56" width="8" height="8" rx="2"/><rect x="392" y="70" width="8" height="8" rx="2"/><rect x="476" y="42" width="8" height="8" rx="2"/><rect x="588" y="56" width="8" height="8" rx="2"/><rect x="756" y="70" width="8" height="8" rx="2"/></g>
      <g fill="#9000cc"><rect x="126" y="70" width="8" height="8" rx="2"/><rect x="280" y="28" width="8" height="8" rx="2"/><rect x="350" y="56" width="8" height="8" rx="2"/><rect x="546" y="28" width="8" height="8" rx="2"/><rect x="672" y="70" width="8" height="8" rx="2"/></g>
      <g fill="#cc00ff"><rect x="196" y="42" width="8" height="8" rx="2"/><rect x="448" y="28" width="8" height="8" rx="2"/><rect x="644" y="56" width="8" height="8" rx="2"/></g>
      <g filter="url(#glowPink)">
        <rect x="238" y="42" width="10" height="10" rx="3" fill="#7d00ff" opacity="0.65"/>
        <rect x="252" y="42" width="10" height="10" rx="3" fill="#9b00f6" opacity="0.75"/>
        <rect x="266" y="42" width="10" height="10" rx="3" fill="#bd00e4" opacity="0.85"/>
        <rect x="280" y="42" width="10" height="10" rx="3" fill="#dc00cf" opacity="0.95"/>
        <rect x="294" y="42" width="10" height="10" rx="3" fill="#ff00b4"/>
        <circle cx="297" cy="45" r="1.3" fill="#fff"/>
        <circle cx="297" cy="49" r="1.3" fill="#fff"/>
      </g>
    </g>
  </g>

  <g class="mono" transform="translate(0 407)">
    <rect x="0" y="0" width="860" height="62" rx="10" fill="#ff00b4" fill-opacity="0.05" stroke="#ff00b4" stroke-opacity="0.27"/>
    <rect x="0" y="0" width="3" height="62" fill="url(#pinkPurple)"/>
    <circle cx="28" cy="31" r="6" fill="#ff00b4" filter="url(#glowPink)"/>
    <text x="48" y="27" class="body soft"><tspan class="pink" font-weight="700">[ ONLINE ]</tspan> Currently interning at <tspan class="cyan">ATI Motors</tspan> as <tspan class="purple">New Product Initiative (NPI)</tspan> engineer &#8226;</text>
    <text x="48" y="45" class="body soft">Parallel: building autonomous <tspan class="pink">mobile manipulator</tspan> with ROS2 (sim -> real-world deployment)</text>
  </g>

  <g class="mono orbit" transform="translate(0 485)">
    <g>
      <rect x="0" y="0" width="206" height="76" rx="10" fill="#ff00b4" fill-opacity="0.07" stroke="#ff00b4" stroke-opacity="0.20"/>
      <text x="103" y="34" text-anchor="middle" font-size="22" font-weight="900" class="pink" filter="url(#glowPink)">05</text>
      <text x="103" y="55" text-anchor="middle" class="mono small muted label">Projects</text>
    </g>
    <g transform="translate(218)">
      <rect x="0" y="0" width="206" height="76" rx="10" fill="#00f0ff" fill-opacity="0.07" stroke="#00f0ff" stroke-opacity="0.20"/>
      <text x="103" y="34" text-anchor="middle" font-size="22" font-weight="900" class="cyan" filter="url(#glowPink)">12+</text>
      <text x="103" y="55" text-anchor="middle" class="mono small muted label">Tech Stack</text>
    </g>
    <g transform="translate(436)">
      <rect x="0" y="0" width="206" height="76" rx="10" fill="#bf00ff" fill-opacity="0.07" stroke="#bf00ff" stroke-opacity="0.20"/>
      <text x="103" y="34" text-anchor="middle" font-size="22" font-weight="900" class="purple" filter="url(#glowPink)">06</text>
      <text x="103" y="55" text-anchor="middle" class="mono small muted label">Certs</text>
    </g>
    <g transform="translate(654)">
      <rect x="0" y="0" width="206" height="76" rx="10" fill="#00ff90" fill-opacity="0.07" stroke="#00ff90" stroke-opacity="0.20"/>
      <text x="103" y="34" text-anchor="middle" font-size="22" font-weight="900" class="green" filter="url(#glowPink)">3+</text>
      <text x="103" y="55" text-anchor="middle" class="mono small muted label">Industries</text>
    </g>
  </g>

  <g class="mono" transform="translate(0 577)">
    <rect x="0" y="0" width="860" height="178" rx="10" fill="#000014" fill-opacity="0.5" stroke="#00f0ff" stroke-opacity="0.13"/>
    <text x="18" y="28" class="small cyan" letter-spacing=".1em">// skill_matrix</text>
    <path d="M142 24H842" stroke="#00f0ff" stroke-opacity="0.20"/>
    <g transform="translate(18 48)">
      <text y="0" class="body text">Python &amp; ROS2 (Humble)</text><text x="806" y="0" text-anchor="end" class="small pink">85%</text>
      <rect y="8" width="824" height="5" rx="3" fill="#111130"/><rect y="8" width="700" height="5" rx="3" fill="url(#pinkPurple)"/>
      <text y="31" class="body text">OpenCV / Computer Vision</text><text x="806" y="31" text-anchor="end" class="small cyan">80%</text>
      <rect y="39" width="824" height="5" rx="3" fill="#111130"/><rect y="39" width="659" height="5" rx="3" fill="url(#blueCyan)"/>
      <text y="62" class="body text">Arduino / Embedded (MPU6050)</text><text x="806" y="62" text-anchor="end" class="small purple">75%</text>
      <rect y="70" width="824" height="5" rx="3" fill="#111130"/><rect y="70" width="618" height="5" rx="3" fill="url(#pinkPurple)"/>
      <text y="93" class="body text">Gazebo / RViz / Simulation</text><text x="806" y="93" text-anchor="end" class="small green">70%</text>
      <rect y="101" width="824" height="5" rx="3" fill="#111130"/><rect y="101" width="577" height="5" rx="3" fill="url(#cyanGreen)"/>
      <text y="124" class="body text">Linux / Git / C++ basics</text><text x="806" y="124" text-anchor="end" class="small cyan">65%</text>
      <rect y="132" width="824" height="5" rx="3" fill="#111130"/><rect y="132" width="536" height="5" rx="3" fill="url(#cyanGreen)"/>
    </g>
  </g>

  <g class="mono" transform="translate(0 777)">
    <text x="0" y="0" class="small pink" letter-spacing=".1em">// featured_projects</text>
    <path d="M162 -4H860" stroke="#ff00b4" stroke-opacity="0.20"/>
    <g transform="translate(0 14)">
      <rect x="0" y="0" width="424" height="82" rx="10" fill="#000014" fill-opacity="0.5" stroke="#222250"/>
      <text x="16" y="23" class="body cyan" font-weight="700">Gesture-Arm Control</text>
      <text x="16" y="45" class="small muted">Vision-based robotic arm control mapping hand landmarks to robot</text>
      <text x="16" y="61" class="small muted">coordinates for pick-and-place tasks.</text>
      <text x="16" y="78" class="small pink">Python   </text><text x="70" y="78" class="small cyan">OpenCV   </text><text x="128" y="78" class="small purple">Dobot API</text>

      <rect x="436" y="0" width="424" height="82" rx="10" fill="#000014" fill-opacity="0.5" stroke="#222250"/>
      <text x="452" y="23" class="body cyan" font-weight="700">Twin Robot Mirror</text>
      <text x="452" y="45" class="small muted">ROS2 leader-follower system with real-time pose sharing and</text>
      <text x="452" y="61" class="small muted">synchronized motion replication.</text>
      <text x="452" y="78" class="small cyan">ROS2   </text><text x="498" y="78" class="small pink">Python   </text><text x="555" y="78" class="small purple">Dobot API</text>
    </g>
    <g transform="translate(0 108)">
      <rect x="0" y="0" width="424" height="82" rx="10" fill="#000014" fill-opacity="0.5" stroke="#222250"/>
      <text x="16" y="23" class="body cyan" font-weight="700">Gesture Wheelchair</text>
      <text x="16" y="45" class="small muted">IMU-based wheelchair controller using real-time hand tilt gestures</text>
      <text x="16" y="61" class="small muted">via MPU6050 sensor.</text>
      <text x="16" y="78" class="small cyan">Arduino   </text><text x="84" y="78" class="small pink">MPU6050   </text><text x="154" y="78" class="small purple">L293</text>

      <rect x="436" y="0" width="424" height="82" rx="10" fill="#000014" fill-opacity="0.5" stroke="#00f0ff" stroke-opacity="0.27"/>
      <text x="452" y="23" class="body cyan" font-weight="700">Mobile Manipulator</text>
      <rect x="594" y="9" width="40" height="18" rx="9" fill="#ffd700" fill-opacity="0.12" stroke="#ffd700" stroke-opacity="0.27"/>
      <text x="614" y="22" text-anchor="middle" class="small gold">WIP</text>
      <text x="452" y="45" class="small muted">Autonomous nav + manipulation - ROS2 localization, planning &amp;</text>
      <text x="452" y="61" class="small muted">control. Sim -> real deployment.</text>
      <text x="452" y="78" class="small cyan">ROS2   Nav Stack   </text><text x="570" y="78" class="small pink">Python</text>
    </g>
  </g>

  <text x="430" y="900" text-anchor="middle" class="mono small" fill="#333360"><tspan fill="#ff00b4" opacity=".4">&#9650;</tspan> built in Bengaluru, India &#8226; open to robotics &amp; automation roles <tspan fill="#00f0ff" opacity=".4">&#9650;</tspan></text>
  <rect width="860" height="910" fill="url(#scan)"/>
</svg>
